<?xml version="1.0" encoding="utf-8"?>
<!-- Generator: Adobe Illustrator 24.2.3, SVG Export Plug-In . SVG Version: 6.00 Build 0)  -->
<svg version="1.1" id="レイヤー_1" xmlns="http://www.w3.org/2000/svg" xmlns:xlink="http://www.w3.org/1999/xlink" x="0px"
	 y="0px" viewBox="0 0 196.8 42" style="enable-background:new 0 0 196.8 42;" xml:space="preserve">
<style type="text/css">
	.st0{fill:#FC3929;}
</style>
<g id="グループ_3" transform="translate(-190.427 -290.238)">
	<g id="グループ_1" transform="translate(190.427 290.238)">
		<path id="パス_2" class="st0" d="M7.9,0l0.4,0c0.2,0,0.4,0.2,0.4,0.5v2.3c0,0.3-0.2,0.5-0.5,0.5h0c-0.2,0-0.4,0-0.6,0
			C7.2,3.2,6.8,3.4,6.6,3.6C6.4,3.9,6.3,4.2,6.3,4.5v1.3h2.2c0.3,0,0.5,0.2,0.5,0.5l0,0v1.9c0,0.3-0.2,0.5-0.5,0.5c0,0,0,0,0,0H6.3
			v11.9C6.3,20.8,6,21,5.8,21h-3c-0.3,0-0.5-0.2-0.5-0.5V8.6H0.5C0.2,8.6,0,8.4,0,8.1l0,0l0,0V6.3C0,6,0.2,5.8,0.5,5.8c0,0,0,0,0,0
			h1.7v-1C2.1,3.6,2.4,2.4,3,1.4C3.6,0.5,5,0,7.3,0C7.5,0,7.7,0,7.9,0z"/>
		<path id="パス_3" class="st0" d="M21.6,5.8v3.1c0,0.3-0.2,0.5-0.5,0.5c0,0,0,0,0,0h0l-0.2,0c-0.2,0-0.4,0-0.5,0
			c-1.6,0-2.7,0.5-3.3,1.6c-0.4,0.9-0.5,1.8-0.5,2.7v6.9c0,0.3-0.2,0.5-0.5,0.5h-3.1c-0.3,0-0.5-0.2-0.5-0.5l0,0V6.1
			c0-0.3,0.2-0.5,0.5-0.5c0,0,0,0,0,0H16c0.3,0,0.5,0.2,0.5,0.5l0,0v2.2c0.4-0.8,1-1.5,1.6-2.1c0.8-0.7,1.9-1,2.9-0.9
			C21.3,5.2,21.5,5.4,21.6,5.8C21.6,5.7,21.6,5.7,21.6,5.8C21.6,5.7,21.6,5.7,21.6,5.8z"/>
		<path id="パス_4" class="st0" d="M108.4,5.8v3.1c0,0.3-0.2,0.5-0.5,0.5h0h0l-0.2,0c-0.2,0-0.4,0-0.5,0c-1.6,0-2.7,0.5-3.3,1.6
			c-0.4,0.9-0.5,1.8-0.5,2.7v6.9c0,0.3-0.2,0.5-0.5,0.5H100c-0.3,0-0.5-0.2-0.5-0.5l0,0V6.1c0-0.3,0.2-0.5,0.5-0.5c0,0,0,0,0,0h2.9
			c0.3,0,0.5,0.2,0.5,0.5l0,0v2.2c0.4-0.8,1-1.5,1.6-2.1c0.8-0.7,1.9-1,2.9-0.9C108.2,5.2,108.4,5.4,108.4,5.8
			C108.4,5.7,108.4,5.7,108.4,5.8z"/>
		<path id="パス_5" class="st0" d="M37.6,19.1c-1.3,1.6-3.3,2.4-5.9,2.4s-4.6-0.8-5.9-2.4c-2.6-3.4-2.6-8.1,0-11.6
			c1.3-1.6,3.3-2.4,5.9-2.4c2.6,0,4.6,0.8,5.9,2.4C40.2,11,40.2,15.7,37.6,19.1z M34.4,16.9c1.3-2.2,1.3-4.9,0-7.1
			c-1.3-1.5-3.5-1.7-5-0.4c-0.1,0.1-0.3,0.3-0.4,0.4c-1.3,2.2-1.3,4.9,0,7.1c1.3,1.5,3.5,1.7,5,0.4C34.1,17.2,34.3,17.1,34.4,16.9
			L34.4,16.9z"/>
		<path id="パス_6" class="st0" d="M55.6,6.5c1.1,1.1,1.7,2.6,1.5,4.1v9.9c0,0.3-0.2,0.5-0.5,0.5h-3.2c-0.3,0-0.5-0.2-0.5-0.5l0,0
			v-8.9c0-0.6-0.1-1.3-0.3-1.9c-0.4-0.8-1.3-1.3-2.2-1.2c-1.2-0.1-2.3,0.6-2.8,1.7c-0.3,0.7-0.4,1.5-0.4,2.3v7.9
			c0,0.3-0.2,0.5-0.5,0.5h-3.1c-0.3,0-0.5-0.2-0.5-0.5l0,0l0,0V6.1c0-0.3,0.2-0.5,0.5-0.5c0,0,0,0,0,0h2.9c0.3,0,0.5,0.2,0.5,0.5
			l0,0v1.8c0.4-0.6,0.9-1.2,1.5-1.7c0.9-0.6,2-1,3.1-0.9C53.1,5.2,54.5,5.7,55.6,6.5z"/>
		<path id="パス_7" class="st0" d="M60.1,8.2V6.3c0-0.3,0.2-0.5,0.5-0.5c0,0,0,0,0,0h1.7V2c0-0.3,0.2-0.5,0.5-0.5c0,0,0,0,0,0h3
			c0.3,0,0.5,0.2,0.5,0.5v3.8h2c0.3,0,0.5,0.2,0.5,0.5v0v1.9c0,0.3-0.2,0.5-0.5,0.5h0h-2v8.1c-0.1,0.4,0,0.8,0.2,1.2
			c0.5,0.2,1,0.3,1.5,0.2c0.1,0,0.2,0,0.3,0c0.3,0,0.5,0.2,0.5,0.4c0,0,0,0,0,0.1v2c0,0.3-0.2,0.5-0.5,0.5l-1.4,0.1
			c-1.9,0.1-3.2-0.3-3.9-1c-0.5-0.6-0.7-1.4-0.7-2.1V8.6h-1.7C60.3,8.6,60.1,8.4,60.1,8.2L60.1,8.2L60.1,8.2z"/>
		<path id="パス_8" class="st0" d="M76.4,3.8h-3.1c-0.3,0-0.5-0.2-0.5-0.5l0,0V0.6c0-0.3,0.2-0.5,0.5-0.5h0h3.1
			c0.3,0,0.5,0.2,0.5,0.5v0l0,0v2.8C76.9,3.6,76.7,3.8,76.4,3.8L76.4,3.8z M73.3,5.6h3.1c0.3,0,0.5,0.2,0.5,0.5v0l0,0v14.4
			c0,0.3-0.2,0.5-0.5,0.5h-3.1c-0.3,0-0.5-0.2-0.5-0.5l0,0V6.1C72.8,5.8,73.1,5.6,73.3,5.6L73.3,5.6L73.3,5.6z"/>
		<path id="パス_9" class="st0" d="M91.8,5.9c1.1,0.5,2,1.3,2.7,2.3c0.6,1,1.1,2,1.2,3.2c0.1,0.9,0.2,1.7,0.1,2.6
			c0,0.3-0.2,0.5-0.5,0.5H84.6c-0.1,1.3,0.5,2.5,1.6,3.2c0.7,0.4,1.4,0.6,2.2,0.6c0.8,0,1.6-0.2,2.2-0.7c0.3-0.2,0.5-0.5,0.7-0.8
			c0.1-0.1,0.2-0.2,0.4-0.2H95c0.3,0,0.5,0.2,0.5,0.5c0,0,0,0.1,0,0.1c-0.3,0.8-0.7,1.5-1.4,2.2c-1.5,1.6-3.6,2.4-5.8,2.2
			c-2,0-3.9-0.6-5.4-1.9c-1.6-1.3-2.3-3.3-2.3-6.2c-0.2-2.2,0.6-4.5,2.1-6.1c1.5-1.4,3.5-2.2,5.5-2.1C89.4,5.2,90.7,5.4,91.8,5.9z
			 M85.8,9.4c-0.6,0.7-1,1.5-1.1,2.4h6.9c0-0.9-0.4-1.8-1.1-2.4c-0.7-0.6-1.5-0.9-2.4-0.8C87.3,8.5,86.4,8.8,85.8,9.4L85.8,9.4z"/>
		<path id="パス_10" class="st0" d="M130.1,5.7c0.8,0.3,1.4,0.8,1.9,1.5c0.4,0.5,0.7,1.1,0.8,1.8c0.1,1,0.2,2,0.1,3v8.6
			c0,0.3-0.2,0.5-0.5,0.5h-3.2c-0.3,0-0.5-0.2-0.5-0.5v0l0,0v-8.9c0-0.7-0.1-1.4-0.4-2c-0.4-0.7-1.2-1.2-2.1-1.1
			c-0.9-0.1-1.8,0.3-2.4,1.1c-0.6,0.9-0.9,2-0.8,3v7.9c0,0.3-0.2,0.5-0.5,0.5h-3.1c-0.3,0-0.5-0.2-0.5-0.5V0.8
			c0-0.3,0.2-0.5,0.5-0.5h0h3.1c0.3,0,0.5,0.2,0.5,0.5v0l0,0v6.9c0.5-0.8,1.2-1.5,2-1.9c0.8-0.4,1.6-0.5,2.4-0.5
			C128.4,5.2,129.3,5.4,130.1,5.7z"/>
		<path id="パス_11" class="st0" d="M150.4,19.1c-1.3,1.6-3.3,2.4-5.9,2.4s-4.6-0.8-5.9-2.4c-2.6-3.4-2.6-8.1,0-11.6
			c1.3-1.6,3.3-2.4,5.9-2.4c2.6,0,4.6,0.8,5.9,2.4C153,11,153,15.7,150.4,19.1z M147.1,16.9c1.3-2.2,1.3-4.9,0-7.1
			c-1.3-1.5-3.5-1.7-5-0.4c-0.1,0.1-0.3,0.2-0.4,0.4c-1.3,2.2-1.3,4.9,0,7.1c1.3,1.5,3.5,1.7,5,0.4C146.9,17.2,147,17.1,147.1,16.9
			L147.1,16.9z"/>
		<path id="パス_12" class="st0" d="M175.3,5.7c1.4,0.6,2.4,1.9,2.7,3.4c0.1,0.8,0.2,1.5,0.1,2.3l0,9.2c0,0.3-0.2,0.5-0.5,0.5
			h-3.2c-0.3,0-0.5-0.2-0.5-0.5l0,0v-9.3c0-0.5-0.1-1-0.3-1.4c-0.4-0.7-1.2-1.2-2-1.1c-1-0.1-1.9,0.5-2.3,1.4
			c-0.2,0.6-0.3,1.2-0.3,1.8v8.7c0,0.3-0.2,0.5-0.5,0.5h-3.1c-0.3,0-0.5-0.2-0.5-0.5l0,0v-8.7c0-0.7-0.1-1.4-0.3-2
			c-0.4-0.8-1.2-1.2-2-1.1c-0.9-0.1-1.8,0.3-2.3,1.1c-0.3,0.6-0.4,1.2-0.3,1.9v8.8c0,0.3-0.2,0.5-0.5,0.5h-3.1
			c-0.3,0-0.5-0.2-0.5-0.5l0,0V6.1c0-0.3,0.2-0.5,0.5-0.5h0h3c0.3,0,0.5,0.2,0.5,0.5v0l0,0v1.8c0.4-0.6,0.8-1.2,1.4-1.7
			c1.8-1.2,4.1-1.2,5.9-0.1c0.6,0.5,1,1.1,1.3,1.9c0.5-0.8,1.1-1.5,2-2c0.9-0.4,1.8-0.6,2.8-0.6C173.9,5.3,174.6,5.4,175.3,5.7z"/>
		<path id="パス_13" class="st0" d="M192.8,5.9c1.1,0.5,2,1.3,2.7,2.3c0.6,1,1.1,2,1.2,3.2c0.1,0.9,0.2,1.7,0.1,2.6
			c0,0.3-0.2,0.5-0.5,0.5h-10.7c-0.1,1.3,0.5,2.5,1.6,3.2c0.7,0.4,1.4,0.6,2.2,0.6c0.8,0,1.6-0.2,2.2-0.7c0.3-0.2,0.5-0.5,0.7-0.8
			c0.1-0.1,0.2-0.2,0.4-0.2h3.2c0.3,0,0.5,0.2,0.5,0.5c0,0,0,0,0,0c0,0,0,0.1,0,0.1c-0.3,0.8-0.7,1.5-1.4,2.2
			c-1.5,1.6-3.6,2.4-5.8,2.2c-2,0-3.9-0.6-5.4-1.9c-1.6-1.3-2.3-3.3-2.3-6.2c-0.2-2.2,0.6-4.5,2.1-6.1c1.5-1.4,3.5-2.2,5.5-2.1
			C190.4,5.2,191.6,5.4,192.8,5.9z M186.8,9.4c-0.6,0.7-1,1.5-1.1,2.4h6.9c0-0.9-0.4-1.8-1.1-2.4c-0.7-0.6-1.5-0.9-2.4-0.8
			C188.3,8.5,187.4,8.8,186.8,9.4L186.8,9.4z"/>
	</g>
	<g id="グループ_5359" transform="translate(221.81 323.591)">
		<path id="パス_476" class="st0" d="M7.8,5.6C7.3,5.3,6.8,5,6.3,4.7c0.1-0.4,0.2-0.9,0.3-1.3c0-0.1,0-0.2,0.1-0.2
			c0.1-0.1,0-0.3-0.1-0.4C6.3,2.7,6.1,2.6,5.8,2.6c0,0-0.1,0-0.1,0c0,0,0,0.1,0,0.1c0,0.2,0,0.4,0,0.5l0,0c0,0.4-0.1,0.7-0.2,1.1
			C4.9,4.1,4.3,4,3.6,3.9l0.1-0.3C4,3.1,4.2,2.5,4.4,1.8c0-0.1,0.1-0.3,0.2-0.4c0.1-0.1,0.1-0.3,0-0.4c0,0,0,0,0,0
			C4.5,0.9,4.4,0.8,4.2,0.7c-0.1-0.1-0.2-0.1-0.3,0C3.7,0.8,3.6,0.8,3.5,0.8C3,0.9,2.5,0.9,2.1,0.9c-0.2,0-0.5,0-0.7,0
			c0,0-0.1,0-0.1,0c0,0-0.1,0.1,0,0.1c0,0.2,0.1,0.5,0.2,0.7c0.1,0.1,0.1,0.1,0.2,0.1c0.1,0,0.1,0,0.1,0c0.1,0,0.3-0.1,0.4-0.1
			c0.3,0,0.8-0.1,1.4-0.2C3.3,2.4,3,3.1,2.7,3.8C1.2,3.9,0,4.7,0,5.8c0,0,0,0.1,0,0.1C0,6.5,0.5,7,1.1,7c0,0,0,0,0,0
			C1.6,7,2,6.7,2.3,6.3c0.4-0.5,0.7-1.1,1-1.7c0.7,0.1,1.3,0.3,2,0.6c-0.4,1-1,1.9-1.9,2.4c-0.1,0-0.1,0.1-0.1,0.2
			c0,0.1,0.1,0.1,0.1,0.1C3.5,8,3.6,8,3.8,8.1c0,0,0.1,0.1,0.2,0.1c0.1,0,0.2,0,0.2-0.1C5,7.5,5.7,6.6,6,5.6
			c0.4,0.2,0.8,0.5,1.2,0.8c0.1,0,0.1,0.1,0.2,0.1c0.1,0,0.1,0,0.2-0.1C7.7,6.3,7.7,6.1,7.8,6l0-0.1C7.9,5.8,7.9,5.7,7.8,5.6z
			 M2.4,4.6C2.2,5,2,5.4,1.7,5.7C1.6,5.9,1.3,6.1,1.1,6.1c-0.2,0-0.3-0.3-0.3-0.4C0.8,5.2,1.5,4.7,2.4,4.6L2.4,4.6z M4.5,1.3
			L4.5,1.3L4.5,1.3L4.5,1.3z"/>
		<path id="パス_477" class="st0" d="M18.4,4.9c0-0.1-0.1-0.1-0.1-0.1c-0.1,0-0.1,0-0.1,0.1c-0.2,0.5-0.4,1-0.7,1.5
			c-0.2,0.3-0.6,0.6-1,0.6c-0.3,0-0.5-0.2-0.6-1.1c-0.1-0.7-0.3-1.7-1.4-1.7l0,0c-0.3,0-0.6,0.1-0.8,0.2c0.3-0.6,0.6-1.2,1-1.8
			L15,1.8c0.1-0.1,0.1-0.2,0.2-0.3c0,0,0.1-0.1,0.1-0.1c0-0.1,0-0.2,0-0.2c0-0.1-0.1-0.1-0.1-0.2c-0.2-0.1-0.4-0.3-0.7-0.4
			c0,0-0.1,0-0.1,0c0,0-0.1,0.1-0.1,0.1c-0.1,0.3-0.2,0.7-0.3,1c-0.7,1.5-1.8,3.6-2.8,5.5c-0.1,0.1-0.1,0.3,0.1,0.3
			c0.1,0.1,0.3,0.2,0.4,0.3c0.1,0,0.1,0,0.2,0C12,7.8,12,7.7,12,7.7c0.3-0.7,0.7-1.4,1.1-2C13.4,5.3,13.8,5,14.3,5
			c0.3,0,0.5,0.2,0.6,1.1C15,7,15.2,7.9,16.3,7.9h0C17,7.9,17.6,7.6,18,7c0.3-0.4,0.6-0.8,0.7-1.3c0.1-0.1,0-0.3-0.1-0.4
			C18.6,5.3,18.5,5.1,18.4,4.9z"/>
		<path id="パス_478" class="st0" d="M29.5,6.8c-0.5-0.4-1.1-0.7-1.7-0.9c-0.1-0.5-0.1-1-0.1-1.6c0-0.1,0-0.2,0-0.4
			c0-0.1,0.1-0.1,0.1-0.2c0-0.1-0.1-0.2-0.2-0.3c-0.2-0.1-0.4-0.1-0.6-0.1c0,0-0.1,0-0.1,0c0,0,0,0.1,0,0.1c0,0.2,0.1,0.4,0.1,0.5
			l0,0c0,0.4,0,1,0.1,1.6c-0.2,0-0.5-0.1-0.7-0.1c-1,0-1.7,0.5-1.7,1.3c0,0.9,0.8,1.3,1.6,1.3c0.5,0,1-0.1,1.4-0.4
			c0.2-0.2,0.4-0.6,0.4-0.9C28.3,7,28.6,7.3,29,7.6c0.1,0,0.1,0.1,0.2,0.1c0.1,0,0.1-0.1,0.2-0.1c0.1-0.1,0.2-0.3,0.2-0.4
			C29.7,7,29.6,6.9,29.5,6.8z M27,6.5c0,0,0,0.1,0,0.1c0,0.5-0.3,0.7-0.9,0.7c-0.8,0-0.8-0.3-0.8-0.5c0-0.3,0.3-0.5,0.9-0.5h0
			C26.5,6.4,26.8,6.5,27,6.5L27,6.5z"/>
		<path id="パス_479" class="st0" d="M28,2c-0.1-0.1-0.3,0-0.3,0.1v0c0,0.1-0.1,0.1-0.1,0.2c0,0.1-0.1,0.1-0.1,0.2
			c0,0.1,0,0.2,0.1,0.2c0,0,0,0,0,0c0.7,0.2,1.3,0.5,1.8,0.9c0,0,0.1,0.1,0.1,0.1c0.1,0,0.1,0,0.2-0.1c0.1-0.1,0.2-0.2,0.2-0.4
			c0.1-0.1,0.1-0.3,0-0.4c0,0,0,0,0,0C29.3,2.5,28.6,2.2,28,2z M29.8,3.1L29.8,3.1L29.8,3.1L29.8,3.1z"/>
		<path id="パス_480" class="st0" d="M26.6,2.6c0.1,0,0.2-0.1,0.2-0.2c0,0,0,0,0,0c0-0.1,0-0.3,0-0.4c0-0.1,0-0.1-0.1-0.2
			c-0.1,0-0.1,0-0.2,0l0,0c-0.3,0.1-0.7,0.1-1,0.2c0.1-0.2,0.1-0.5,0.2-0.8c0-0.1,0-0.1,0.1-0.2c0.1-0.1,0.1-0.1,0.1-0.2
			c0-0.1-0.1-0.2-0.2-0.2c-0.2-0.1-0.5-0.2-0.7-0.2c0,0-0.1,0-0.1,0c0,0-0.1,0.1-0.1,0.1c0,0.2,0,0.5-0.1,0.7
			c-0.1,0.4-0.2,0.7-0.2,1c-0.4,0-0.7,0.1-1.1,0.1c-0.2,0-0.5,0-0.7,0c0,0-0.1,0-0.1,0c0,0,0,0.1,0,0.1c0,0.2,0,0.3,0.1,0.5
			c0,0.1,0.1,0.2,0.2,0.2c0.2,0,0.3,0,0.5,0c0.3,0,0.6,0,0.9,0c-0.4,1.1-1,2.1-1.6,3.1c-0.1,0.1-0.1,0.3,0,0.3c0,0,0,0,0,0
			c0.1,0.1,0.2,0.2,0.4,0.3c0,0,0.1,0.1,0.2,0.1c0,0,0,0,0,0c0.1,0,0.1-0.1,0.2-0.1c0.7-1.2,1.3-2.5,1.8-3.8
			C25.7,2.8,26.1,2.7,26.6,2.6z"/>
		<path id="パス_481" class="st0" d="M41,6.6c0-0.1,0-0.1-0.1-0.2c-0.1,0-0.1-0.1-0.2,0c-0.6,0.1-1.2,0.1-1.8,0.1
			c-1.3,0-1.5-0.5-1.5-0.8c0-0.1,0-0.1-0.1-0.2c0,0-0.1,0-0.2,0l-0.5,0c-0.1,0-0.1,0.1-0.1,0.1c0,0.4,0.1,0.9,0.4,1.2
			c0.5,0.4,1.1,0.6,1.7,0.6c0.1,0,0.2,0,0.4,0c0.6,0,1.1,0,1.6-0.1c0.2,0,0.2-0.1,0.2-0.3C41.1,6.9,41,6.7,41,6.6L41,6.6z"/>
		<path id="パス_482" class="st0" d="M37,2.8C37,2.8,37.1,2.8,37,2.8c0.1,0,0.1,0,0.1,0c0.6-0.1,1.2-0.2,1.9-0.2
			c0.7,0,1.2,0,1.4,0c0.1,0,0.1,0,0.2,0c0,0,0.1-0.1,0.1-0.2c0-0.1,0-0.3,0-0.4c0-0.2-0.2-0.2-0.3-0.2c-0.3,0-0.8,0-1.3,0
			c-0.7,0-1.3,0.1-2,0.2C37,1.9,36.9,2,37,2.1c0,0.1,0,0.3,0,0.5C37,2.7,37,2.7,37,2.8z"/>
		<path id="パス_483" class="st0" d="M35.8,5.1C35.8,5,35.7,5,35.7,5c-0.1,0-0.1,0-0.1,0.1c-0.2,0.4-0.3,0.7-0.4,0.9L35,6.2
			c0-0.3-0.1-0.7-0.1-1c0-1,0.2-2.1,0.4-3.1c0-0.1,0.1-0.3,0.1-0.4c0.1-0.1,0.1-0.2,0.1-0.3c0-0.1-0.1-0.2-0.2-0.3h0
			C35.3,1,35,0.9,34.8,0.8c0,0-0.1,0-0.1,0c0,0-0.1,0.1-0.1,0.1c0,0.3-0.1,0.7-0.1,1c-0.2,1-0.3,2.1-0.4,3.1c0,0.9,0.1,1.8,0.4,2.7
			c0,0.1,0.1,0.2,0.3,0.2c0.1,0,0.3,0,0.4-0.1c0.1,0,0.2-0.1,0.2-0.2c0,0,0-0.1,0-0.1c0,0,0-0.1,0-0.1c0-0.1,0-0.1,0-0.2
			c0.2-0.5,0.4-1,0.6-1.4c0-0.1,0.1-0.2,0.1-0.2c0-0.1,0-0.1-0.1-0.2C35.9,5.3,35.8,5.2,35.8,5.1z"/>
		<path id="パス_484" class="st0" d="M50.3,4.2c-0.2,0-0.3,0-0.5,0c-0.1,0-0.1,0-0.1,0.1c0,0.1,0,0.1,0,0.2
			c0.5,0.4,0.8,0.9,0.8,1.5c0,0.9-0.9,1.2-1.7,1.2c-0.9,0-1.3-0.3-1.3-1.1c0-0.2,0-0.5,0.1-0.8l0-0.1c0.5,0,1,0,1.4,0
			c0.1,0,0.2,0,0.2-0.2c0-0.1,0-0.3,0-0.4c0-0.1,0-0.1-0.1-0.2c-0.1,0-0.1-0.1-0.2,0c-0.4,0-0.9,0-1.3,0c0.1-0.4,0.1-0.9,0.2-1.3
			c0.4,0,0.8,0,1.2,0c0.1,0,0.2-0.1,0.2-0.2c0,0,0,0,0,0c0-0.1,0-0.3,0-0.4c0-0.1-0.1-0.2-0.2-0.2c0,0,0,0,0,0l0,0
			c-0.4,0-0.7,0-1.1,0c0-0.3,0.1-0.5,0.1-0.8c0-0.1,0.1-0.2,0.1-0.3C48.3,1,48.4,1,48.4,0.9c0-0.1-0.1-0.2-0.2-0.3
			c-0.2-0.1-0.5-0.2-0.7-0.2c0,0-0.1,0-0.1,0c0,0-0.1,0.1,0,0.1c0,0.2,0,0.5,0,0.7c0,0.4-0.1,0.6-0.1,1c-0.5-0.1-1.1-0.2-1.6-0.3
			c0,0-0.1,0-0.1,0c0,0-0.1,0.1-0.1,0.1c0,0.2,0,0.4,0,0.5c0,0.1,0.1,0.2,0.2,0.2C46,2.9,46.5,3,47,3.1c0,0.4-0.1,0.8-0.2,1.3
			c-0.5-0.1-1-0.2-1.4-0.3c0,0-0.1,0-0.1,0c0,0-0.1,0.1-0.1,0.1c0,0.2,0,0.4,0,0.5c0,0.1,0.1,0.2,0.2,0.2c0.4,0.1,0.9,0.2,1.3,0.3
			l0,0.1c0,0.3-0.1,0.6-0.1,0.9c0,1.3,0.7,2,2.2,2l0,0c0.1,0,0.1,0,0.2,0c0,0,0.1,0,0.1,0c1.2,0,2.2-0.9,2.2-2.1
			c0-0.7-0.3-1.3-0.8-1.8C50.5,4.2,50.4,4.2,50.3,4.2z"/>
		<path id="パス_485" class="st0" d="M60.5,3.7c-0.4-0.3-0.9-0.5-1.4-0.4c-0.9,0.1-1.7,0.2-2.5,0.5c-0.4,0.2-0.9,0.3-1.4,0.3
			c0,0-0.1,0-0.1,0.1c0,0,0,0.1,0,0.1c0.1,0.2,0.2,0.4,0.3,0.6c0.1,0.1,0.2,0.2,0.3,0.2c0,0,0,0,0.1,0c0.1,0,0.2-0.1,0.2-0.1
			c0.1-0.1,0.3-0.2,0.4-0.2c0.8-0.4,1.7-0.6,2.6-0.7c0.4,0,1.2,0.1,1.2,1.1c0,0.6-0.3,1.1-0.8,1.3c-0.6,0.3-1.3,0.5-2,0.6
			c-0.1,0-0.1,0.1-0.1,0.1c0,0.1,0,0.1,0.1,0.2c0.1,0.1,0.2,0.2,0.3,0.3c0,0.1,0.1,0.2,0.3,0.2c0,0,0.1,0,0.1,0
			c0.7-0.1,1.3-0.3,1.9-0.6c0.8-0.3,1.3-1.1,1.3-2c0-0.1,0-0.2,0-0.2C61.1,4.5,60.8,4,60.5,3.7z"/>
		<path id="パス_486" class="st0" d="M70.8,6.7c-0.8,0.1-1.5,0.2-2.3,0.2h-0.1c-0.9,0-1.5-0.1-1.7-0.4c-0.1-0.1-0.2-0.3-0.2-0.5
			c0-0.5,0.4-1,1.3-1.5c0.6-0.3,1.3-0.7,2.1-1c0.2-0.1,0.5-0.2,0.7-0.3c0.1,0,0.2-0.1,0.3-0.2c0-0.1,0-0.2,0-0.3
			c-0.1-0.2-0.3-0.4-0.5-0.5c0,0-0.1,0-0.1,0c0,0-0.1,0-0.1,0.1c-0.1,0.2-0.3,0.3-0.5,0.4c-0.4,0.2-0.8,0.4-1.3,0.6l-0.2,0.1
			c-0.1-0.5-0.2-1.1-0.3-1.6c0-0.2,0-0.4-0.1-0.6c0-0.1,0-0.1,0-0.2c0-0.1,0-0.1,0-0.2c0-0.1-0.1-0.2-0.2-0.3
			c-0.3-0.1-0.5-0.1-0.8-0.1c-0.1,0-0.1,0-0.1,0.1c0,0,0,0.1,0,0.1c0.1,0.3,0.2,0.6,0.2,0.9C67,2.3,67.2,3,67.4,3.7
			c-1.2,0.8-1.7,1.5-1.7,2.3c0,1.6,1.6,1.7,2.9,1.7h0.1c0.8,0,1.5,0,2.3-0.1c0.1,0,0.2,0,0.2-0.1c0-0.1,0.1-0.1,0.1-0.2
			c0-0.2,0-0.3-0.1-0.5C71.1,6.7,71,6.7,70.8,6.7C70.9,6.7,70.8,6.7,70.8,6.7z"/>
		<path id="パス_487" class="st0" d="M75.9,6.2c-0.1-0.1-0.3-0.1-0.4,0c0,0,0,0,0,0l-0.3,0.3c0,0.1-0.1,0.1-0.1,0.2
			c0,0.1,0.1,0.2,0.1,0.2c0.6,0.4,1.2,1,1.6,1.6c0,0.1,0.1,0.1,0.2,0.1c0.1,0,0.1,0,0.2-0.1l0.3-0.3c0.1-0.1,0.1-0.1,0.1-0.2
			c0-0.1,0-0.1-0.1-0.2C77.2,7.2,76.6,6.6,75.9,6.2z"/>
		<path id="パス_488" class="st0" d="M88.8,2.3L88.8,2.3c-0.2,0.1-0.3,0.2-0.4,0.3c0,0-0.1,0.1-0.1,0.1c0,0,0,0.1,0,0.1
			c0.9,0.8,1.5,1.9,1.7,3c0,0,0,0.1,0,0.1C90,6,90.1,6,90.2,6c0,0,0.1,0,0.1,0c0.1-0.1,0.3-0.1,0.4-0.2c0.1,0,0.2-0.2,0.2-0.3
			c-0.2-1.2-0.9-2.4-1.8-3.2C89,2.2,88.9,2.2,88.8,2.3z"/>
		<path id="パス_489" class="st0" d="M86.7,5.2c0-0.1-0.1-0.1-0.1-0.1c-0.1,0-0.1,0-0.1,0.1c-0.3,1-0.6,1.3-0.8,1.3
			c-0.3,0-0.7-0.6-0.8-1.7c-0.1-0.7-0.1-1.4-0.1-2c0-0.3,0-0.5,0.1-0.8c0-0.1,0-0.1,0-0.2c0-0.1-0.1-0.2-0.2-0.2h0
			c-0.2-0.1-0.5-0.2-0.8-0.2c0,0-0.1,0-0.1,0c0,0,0,0.1,0,0.1c0.1,0.3,0.1,0.6,0.1,0.8c0,0.9,0.1,1.7,0.2,2.6
			c0.2,1.6,0.9,2.6,1.7,2.6c0.7,0,1.2-0.8,1.5-1.5c0-0.1,0-0.3-0.1-0.4C86.8,5.5,86.7,5.4,86.7,5.2z"/>
		<path id="パス_490" class="st0" d="M100.2,2.3L100.2,2.3c-0.2,0.1-0.3,0.2-0.4,0.3c0,0-0.1,0.1-0.1,0.1c0,0,0,0.1,0,0.1
			c0.9,0.8,1.5,1.9,1.7,3c0,0,0,0.1,0,0.1c0,0.1,0.1,0.1,0.2,0.1c0,0,0.1,0,0.1,0c0.1-0.1,0.3-0.1,0.4-0.2c0.1,0,0.2-0.2,0.2-0.3
			c-0.2-1.2-0.9-2.4-1.8-3.2C100.4,2.2,100.3,2.2,100.2,2.3z"/>
		<path id="パス_491" class="st0" d="M98.1,5.2c0-0.1-0.1-0.1-0.1-0.1c-0.1,0-0.1,0-0.1,0.1c-0.3,1-0.6,1.3-0.8,1.3
			c-0.3,0-0.7-0.6-0.8-1.7c-0.1-0.7-0.1-1.4-0.1-2c0-0.3,0-0.5,0.1-0.8c0-0.1,0-0.1,0-0.2c0-0.1-0.1-0.2-0.2-0.2h0
			c-0.2-0.1-0.5-0.2-0.8-0.2c0,0-0.1,0-0.1,0c0,0,0,0.1,0,0.1c0.1,0.3,0.1,0.6,0.1,0.8c0,0.9,0.1,1.7,0.2,2.6
			c0.2,1.6,0.9,2.6,1.7,2.6c0.7,0,1.2-0.8,1.5-1.5c0-0.1,0-0.3-0.1-0.4C98.2,5.5,98.2,5.4,98.1,5.2z"/>
		<path id="パス_492" class="st0" d="M112.2,5.2h0.6c0.7,0,1,0,1.1,0h0.1c0.1,0,0.2-0.1,0.2-0.2c0,0,0,0,0,0V4.7
			c0-0.1-0.1-0.2-0.2-0.2c0,0,0,0,0,0h-0.1c-0.1,0-0.4,0-1.1,0h-3c0.1,0,0.1-0.1,0.1-0.2v0h1.5c0.7,0,1,0,1.2,0h0.1
			c0.1,0,0.2-0.1,0.2-0.2c0,0,0,0,0,0V4c0-0.1,0-0.3,0-0.6V2.7c0-0.4,0-0.6,0-0.6V2c0-0.1-0.1-0.2-0.2-0.2c0,0,0,0,0,0h-0.1
			c-0.1,0-0.4,0-1,0c0,0,0-0.1,0-0.1c0,0,0,0,0-0.1s0-0.1,0-0.2h1c0.7,0,1,0,1.1,0h0.1c0.1,0,0.2-0.1,0.2-0.2c0,0,0,0,0,0l0,0V0.8
			c0-0.1-0.1-0.2-0.2-0.2c0,0,0,0,0,0h-0.1c-0.1,0-0.4,0-1.1,0h-1c0-0.1,0-0.1,0-0.2c0-0.1,0-0.1,0.1-0.2c0-0.1-0.1-0.2-0.2-0.2
			c-0.1,0-0.3,0-0.6,0c0,0-0.1,0-0.1,0.1c0,0,0,0.1,0,0.1c0,0.1,0,0.3,0.1,0.4h-1.8c0-0.1,0-0.1,0-0.1c0-0.1,0.1-0.1,0.1-0.2
			c0-0.1-0.1-0.2-0.2-0.2c-0.1,0-0.3,0-0.6,0c0,0-0.1,0-0.1,0.1c0,0,0,0.1,0,0.1c0,0.1,0,0.3,0.1,0.4h-1c-0.7,0-1,0-1.1,0h-0.1
			c-0.1,0-0.2,0.1-0.2,0.2c0,0,0,0,0,0v0.4c0,0.1,0.1,0.2,0.2,0.2c0,0,0,0,0,0h0.1c0.1,0,0.4,0,1.1,0h1c0,0.1,0,0.1,0,0.1
			c0,0.1,0,0.1,0,0.1c0,0.1,0,0.1,0,0.1c-0.5,0-0.8,0-0.9,0h-0.1c-0.1,0-0.2,0.1-0.2,0.2c0,0,0,0,0,0c0,0,0,0,0,0.1
			c0,0.1,0,0.3,0,0.6v0.7c0,0.4,0,0.5,0,0.6c0,0,0,0,0,0.1c0,0.1,0.1,0.2,0.2,0.2c0,0,0,0,0,0h0.1c0.1,0,0.5,0,1.2,0h0.3
			c-0.1,0.1-0.1,0.2-0.2,0.2h-1.5c-0.7,0-1,0-1.1,0h-0.1c-0.1,0-0.2,0.1-0.2,0.2c0,0,0,0,0,0V5c0,0.1,0.1,0.2,0.2,0.2c0,0,0,0,0,0
			h0.1c0.1,0,0.4,0,1.1,0h0.6c-0.6,0.4-1.3,0.7-2.1,0.9c-0.1,0-0.1,0.1-0.1,0.1c0,0.1,0,0.1,0.1,0.1c0.1,0.1,0.2,0.1,0.2,0.2
			c0.1,0.1,0.1,0.2,0.3,0.2l0,0c0.1,0,0.1,0,0.2-0.1c0.4-0.1,0.8-0.3,1.1-0.5V7c0,0.9,0,1.2,0,1.3v0.1c0,0.1,0.1,0.2,0.2,0.2
			c0,0,0,0,0,0h0.4c0.1,0,0.2-0.1,0.2-0.2c0,0,0,0,0,0V8.1h3.3v0.1c0,0.1,0.1,0.2,0.2,0.2c0,0,0,0,0,0h0.4c0.1,0,0.2-0.1,0.2-0.2
			c0,0,0,0,0,0v0c0-0.1,0-0.4,0-1.3V6.2c0.4,0.2,0.8,0.4,1.2,0.5c0.2,0.1,0.3,0,0.4-0.2c0.1-0.1,0.1-0.2,0.2-0.3c0,0,0.1-0.1,0-0.2
			c0-0.1-0.1-0.1-0.1-0.1C113.6,5.9,112.9,5.6,112.2,5.2z M109.2,1.6c0,0,0-0.1,0-0.2h1.8l0,0.1c0,0.1,0,0.1,0,0.1
			c0,0.1,0,0.1,0,0.1h-1.8C109.2,1.7,109.2,1.7,109.2,1.6C109.2,1.6,109.2,1.6,109.2,1.6z M112.2,3.3v0.2H108V3.3H112.2z M108,2.7
			V2.5h4.2v0.2H108z M108.5,6.4V6.1h3.3v0.3H108.5z M108.9,5.5c0.1-0.1,0.2-0.2,0.3-0.2h2c0.1,0.1,0.2,0.2,0.3,0.2H108.9z
			 M111.7,7.1v0.3h-3.3V7.1H111.7z"/>
		<path id="パス_493" class="st0" d="M120.8,2.1c0,0.1,0.1,0.1,0.2,0.1h0c0.1,0,0.1,0,0.2-0.1c0.1-0.1,0.2-0.3,0.3-0.4
			c0.1-0.1,0.1-0.2,0-0.3c0,0,0,0,0,0c-0.5-0.5-1.1-0.8-1.7-1.1c-0.1-0.1-0.2,0-0.3,0.1c-0.1,0.1-0.2,0.3-0.3,0.4c0,0,0,0.1,0,0.1
			c0,0,0,0.1,0.1,0.1C119.7,1.3,120.3,1.6,120.8,2.1z"/>
		<path id="パス_494" class="st0" d="M121.9,3.6c-1.1,0.1-2.2,0.5-3,1.3c0.1-0.5,0.1-1.1,0.2-1.6c0-0.1,0-0.2,0.1-0.4
			c0.1-0.1,0.1-0.2,0.1-0.2c0-0.1-0.1-0.2-0.2-0.2l0,0c-0.2-0.1-0.4-0.2-0.6-0.3c0,0-0.1,0-0.1,0c0,0-0.1,0.1-0.1,0.1
			c0,0.2,0,0.5-0.1,0.7C118.1,4.1,118,5,118,6c0,0.1,0.1,0.2,0.2,0.3c0.1,0.1,0.3,0.1,0.4,0.2c0.1,0.1,0.3,0,0.3-0.1c0,0,0,0,0,0
			c0.1-0.2,0.2-0.4,0.4-0.5c0.7-0.8,1.6-1.3,2.6-1.4c0.8,0,1.2,0.4,1.2,1c0,0.6-0.4,1.2-1,1.4c-0.8,0.3-1.6,0.5-2.4,0.6
			c-0.1,0-0.1,0.1-0.1,0.2c0,0,0,0.1,0.1,0.1c0.1,0.1,0.3,0.2,0.4,0.4c0,0.1,0.1,0.2,0.3,0.2c0,0,0.1,0,0.1,0
			c0.8-0.1,1.5-0.3,2.2-0.6c0.9-0.3,1.4-1.1,1.5-2.1c0-0.1,0-0.2,0-0.3C123.8,4.2,122.9,3.5,121.9,3.6z"/>
		<path id="パス_495" class="st0" d="M134,6c-0.1-0.2-0.1-0.3-0.1-0.5c0-0.1-0.1-0.1-0.1-0.1c-0.1,0-0.1,0-0.2,0.1
			c-0.8,1-1.9,1.6-3.1,1.7c-0.6,0-0.9-0.2-0.9-1.2c0-1.1,0-2.3,0.1-3.9c0-0.3,0-0.6,0.1-0.9c0-0.1,0.1-0.2,0.1-0.3
			c0-0.1,0-0.2-0.3-0.3c-0.3-0.1-0.5-0.1-0.8-0.1c0,0-0.1,0-0.1,0c0,0,0,0.1,0,0.1c0.1,0.4,0.1,0.9,0.1,1.3c0,0.3,0,0.7,0,1.1
			c0,1-0.1,2-0.1,3c0,1.3,0.5,2,1.7,2c1.3,0,2.6-0.6,3.6-1.6c0.1-0.1,0.2-0.2,0.2-0.3C134,6.1,134,6.1,134,6z"/>
	</g>
</g>
</svg>
