<?xml version="1.0" encoding="utf-8"?>
<!-- Generator: Adobe Illustrator 24.2.3, SVG Export Plug-In . SVG Version: 6.00 Build 0)  -->
<svg version="1.1" id="レイヤー_1" xmlns="http://www.w3.org/2000/svg" xmlns:xlink="http://www.w3.org/1999/xlink" x="0px"
	 y="0px" viewBox="0 0 146.1 16" style="enable-background:new 0 0 146.1 16;" xml:space="preserve">
<style type="text/css">
	.st0{fill:#FC3929;}
</style>
<g id="グループ_3" transform="translate(-190.427 -290.238)">
	<g id="グループ_1" transform="translate(190.427 290.238)">
		<path id="パス_2" class="st0" d="M5.9,0l0.3,0c0.2,0,0.3,0.2,0.3,0.4v1.7c0,0.2-0.2,0.4-0.4,0.4h0c-0.1,0-0.3,0-0.5,0
			c-0.3,0-0.6,0.1-0.8,0.3C4.7,2.9,4.6,3.1,4.6,3.3v1h1.6c0.2,0,0.4,0.2,0.4,0.4c0,0,0,0,0,0V6c0,0.2-0.2,0.4-0.4,0.4c0,0,0,0,0,0
			H4.6v8.9c0,0.2-0.2,0.4-0.4,0.4H2c-0.2,0-0.4-0.2-0.4-0.4V6.4H0.4C0.2,6.4,0,6.2,0,6c0,0,0,0,0,0l0,0V4.6c0-0.2,0.2-0.4,0.4-0.4
			c0,0,0,0,0,0h1.3V3.6C1.5,2.7,1.8,1.8,2.3,1c0.4-0.7,1.5-1,3.1-1C5.6,0,5.7,0,5.9,0z"/>
		<path id="パス_3" class="st0" d="M16,4.3v2.3C16,6.8,15.9,7,15.7,7c0,0,0,0,0,0h0l-0.1,0c-0.1,0-0.3,0-0.4,0
			c-1-0.1-1.9,0.3-2.4,1.2c-0.3,0.6-0.4,1.3-0.3,2v5.1c0,0.2-0.2,0.4-0.4,0.4H9.7c-0.2,0-0.4-0.2-0.4-0.4l0,0l0,0V4.5
			c0-0.2,0.2-0.4,0.4-0.4h2.1c0.2,0,0.4,0.2,0.4,0.4v1.6c0.3-0.6,0.7-1.1,1.2-1.6c0.6-0.5,1.4-0.7,2.2-0.7C15.8,3.9,16,4,16,4.3
			C16,4.2,16,4.2,16,4.3C16,4.2,16,4.3,16,4.3z"/>
		<path id="パス_4" class="st0" d="M80.5,4.3v2.3c0,0.2-0.2,0.4-0.4,0.4h0L80,7c-0.1,0-0.3,0-0.4,0c-1-0.1-1.9,0.3-2.4,1.2
			c-0.3,0.6-0.4,1.3-0.3,2v5.1c0,0.2-0.2,0.4-0.4,0.4h-2.3c-0.2,0-0.4-0.2-0.4-0.4l0,0l0,0V4.5c0-0.2,0.2-0.4,0.4-0.4h2.1
			c0.2,0,0.4,0.2,0.4,0.4c0,0,0,0,0,0l0,0v1.6c0.3-0.6,0.7-1.1,1.2-1.6c0.6-0.5,1.4-0.7,2.2-0.7C80.3,3.9,80.5,4,80.5,4.3
			C80.5,4.2,80.5,4.3,80.5,4.3z"/>
		<path id="パス_5" class="st0" d="M27.9,14.2c-2.4,2.4-6.3,2.4-8.8,0c-1.9-2.5-1.9-6,0-8.6c2.4-2.4,6.4-2.4,8.8,0
			C29.8,8.2,29.8,11.7,27.9,14.2z M25.5,12.6c0.9-1.6,0.9-3.7,0-5.3c-1-1.1-2.6-1.2-3.7-0.3c-0.1,0.1-0.2,0.2-0.3,0.3
			c-0.9,1.6-0.9,3.7,0,5.3c0.9,1.1,2.6,1.2,3.7,0.3c0,0,0,0,0,0C25.3,12.8,25.4,12.7,25.5,12.6L25.5,12.6z"/>
		<path id="パス_6" class="st0" d="M41.2,4.8c0.8,0.8,1.2,1.9,1.1,3.1v7.3c0,0.2-0.2,0.4-0.4,0.4h-2.4c-0.2,0-0.4-0.2-0.4-0.4l0,0
			l0,0V8.7c0-0.5-0.1-0.9-0.2-1.4c-0.3-0.6-1-1-1.7-0.9c-0.9-0.1-1.7,0.5-2.1,1.3C35.1,8.2,35,8.8,35,9.4v5.8c0,0.2-0.2,0.4-0.4,0.4
			h-2.3c-0.2,0-0.4-0.2-0.4-0.4l0,0V4.6c0-0.2,0.2-0.4,0.4-0.4h2.2c0.2,0,0.4,0.2,0.4,0.4c0,0,0,0,0,0v1.3C35.2,5.4,35.6,5,36,4.6
			c0.7-0.5,1.5-0.7,2.3-0.7C39.4,3.9,40.4,4.2,41.2,4.8z"/>
		<path id="パス_7" class="st0" d="M44.6,6.1V4.6c0-0.2,0.2-0.4,0.4-0.4c0,0,0,0,0,0h1.2V1.5c0-0.2,0.2-0.4,0.4-0.4h2.2
			c0.2,0,0.4,0.2,0.4,0.4v2.8h1.5c0.2,0,0.4,0.2,0.4,0.4c0,0,0,0,0,0v1.4c0,0.2-0.2,0.4-0.4,0.4h-1.5v6c0,0.3,0,0.6,0.2,0.9
			c0.3,0.2,0.7,0.2,1.1,0.2c0.1,0,0.1,0,0.2,0c0.2,0,0.3,0.1,0.4,0.3c0,0,0,0,0,0c0,0,0,0,0,0.1v1.5c0,0.2-0.2,0.3-0.3,0.4l-1.1,0
			c-1,0.2-2.1-0.1-2.9-0.7c-0.4-0.4-0.5-1-0.5-1.6v-7H45C44.8,6.4,44.6,6.3,44.6,6.1C44.6,6.1,44.6,6.1,44.6,6.1L44.6,6.1z"/>
		<path id="パス_8" class="st0" d="M56.7,2.8h-2.3c-0.2,0-0.4-0.2-0.4-0.4l0,0l0,0v-2c0-0.2,0.2-0.4,0.4-0.4h2.3
			c0.2,0,0.4,0.2,0.4,0.4l0,0v2C57.1,2.7,56.9,2.8,56.7,2.8L56.7,2.8z M54.4,4.2h2.3c0.2,0,0.4,0.2,0.4,0.4l0,0v10.7
			c0,0.2-0.2,0.4-0.4,0.4h-2.3c-0.2,0-0.4-0.2-0.4-0.4l0,0l0,0V4.5C54.1,4.3,54.2,4.2,54.4,4.2C54.4,4.2,54.4,4.2,54.4,4.2L54.4,4.2
			z"/>
		<path id="パス_9" class="st0" d="M68.1,4.4c0.8,0.4,1.5,1,2,1.7c0.5,0.7,0.8,1.5,0.9,2.4c0.1,0.6,0.1,1.3,0.1,1.9
			c0,0.2-0.2,0.4-0.4,0.4h-8c-0.1,1,0.4,1.9,1.2,2.4c0.5,0.3,1.1,0.4,1.6,0.4c0.6,0,1.2-0.2,1.7-0.5c0.2-0.2,0.4-0.4,0.5-0.6
			c0.1-0.1,0.2-0.2,0.3-0.2h2.4c0.2,0,0.4,0.2,0.4,0.4c0,0,0,0,0,0c0,0,0,0.1,0,0.1c-0.2,0.6-0.6,1.1-1,1.6
			c-1.1,1.2-2.7,1.8-4.3,1.7c-1.5,0-2.9-0.5-4-1.4c-1.2-0.9-1.7-2.5-1.7-4.6c-0.1-1.7,0.5-3.3,1.6-4.6c1.1-1.1,2.6-1.6,4.1-1.6
			C66.4,3.9,67.3,4,68.1,4.4z M63.7,7c-0.4,0.5-0.7,1.1-0.8,1.8H68c0-0.7-0.3-1.3-0.8-1.8c-0.5-0.4-1.1-0.6-1.8-0.6
			C64.8,6.3,64.1,6.5,63.7,7L63.7,7z"/>
		<path id="パス_10" class="st0" d="M96.6,4.2c0.6,0.2,1.1,0.6,1.4,1.1c0.3,0.4,0.5,0.8,0.6,1.3c0.1,0.7,0.1,1.5,0.1,2.2v6.4
			c0,0.2-0.2,0.4-0.4,0.4H96c-0.2,0-0.4-0.2-0.4-0.4l0,0V8.6c0-0.5-0.1-1-0.3-1.5c-0.3-0.6-0.9-0.9-1.5-0.8c-0.7,0-1.4,0.3-1.8,0.8
			c-0.4,0.7-0.7,1.5-0.6,2.3v5.8c0,0.2-0.2,0.4-0.4,0.4h-2.3c-0.2,0-0.4-0.2-0.4-0.4l0,0V0.6c0-0.2,0.2-0.4,0.4-0.4c0,0,0,0,0,0H91
			c0.2,0,0.4,0.2,0.4,0.4l0,0v5.1c0.4-0.6,0.9-1.1,1.5-1.4C93.4,4,94,3.9,94.7,3.9C95.3,3.9,96,4,96.6,4.2z"/>
		<path id="パス_11" class="st0" d="M111.6,14.2c-2.4,2.4-6.3,2.4-8.8,0c-1.9-2.5-1.9-6,0-8.6c2.4-2.4,6.4-2.4,8.8,0
			C113.5,8.2,113.5,11.7,111.6,14.2z M109.2,12.6c0.9-1.6,0.9-3.7,0-5.3c-1-1.1-2.6-1.2-3.7-0.3c0,0,0,0,0,0
			c-0.1,0.1-0.2,0.2-0.3,0.3c-0.9,1.6-0.9,3.7,0,5.3c0.9,1.1,2.6,1.2,3.7,0.3c0,0,0,0,0,0C109,12.8,109.1,12.7,109.2,12.6
			L109.2,12.6z"/>
		<path id="パス_12" class="st0" d="M130.1,4.2c1,0.4,1.8,1.4,2,2.5c0.1,0.6,0.1,1.1,0.1,1.7l0,6.8c0,0.2-0.2,0.4-0.4,0.4h-2.4
			c-0.2,0-0.4-0.2-0.4-0.4l0,0l0,0V8.3c0-0.4-0.1-0.7-0.2-1.1c-0.3-0.5-0.9-0.9-1.5-0.8c-0.7-0.1-1.4,0.4-1.7,1
			c-0.2,0.4-0.3,0.9-0.2,1.3v6.4c0,0.2-0.2,0.4-0.4,0.4h-2.3c-0.2,0-0.4-0.2-0.4-0.4l0,0l0,0V8.8c0-0.5,0-1-0.2-1.5
			c-0.3-0.6-0.9-0.9-1.5-0.8c-0.7-0.1-1.4,0.2-1.7,0.8c-0.2,0.4-0.3,0.9-0.2,1.4v6.5c0,0.2-0.2,0.4-0.4,0.4h-2.3
			c-0.2,0-0.4-0.2-0.4-0.4l0,0l0,0V4.6c0-0.2,0.2-0.4,0.4-0.4h2.2c0.2,0,0.4,0.2,0.4,0.4l0,0v1.3c0.3-0.5,0.6-0.9,1-1.3
			c1.3-0.9,3-0.9,4.4-0.1c0.4,0.4,0.8,0.8,1,1.4c0.3-0.6,0.8-1.1,1.5-1.5c0.6-0.3,1.3-0.5,2.1-0.5C129.1,3.9,129.6,4,130.1,4.2z"/>
		<path id="パス_13" class="st0" d="M143.1,4.4c0.8,0.4,1.5,1,2,1.7c0.5,0.7,0.8,1.5,0.9,2.4c0.1,0.6,0.1,1.3,0.1,1.9
			c0,0.2-0.2,0.4-0.4,0.4h-8c-0.1,1,0.4,1.9,1.2,2.4c0.5,0.3,1.1,0.4,1.6,0.4c0.6,0,1.2-0.2,1.7-0.5c0.2-0.2,0.4-0.4,0.5-0.6
			c0.1-0.1,0.2-0.2,0.3-0.2h2.4c0.2,0,0.4,0.2,0.4,0.4c0,0,0,0.1,0,0.1c-0.2,0.6-0.6,1.1-1,1.6c-1.1,1.2-2.7,1.8-4.3,1.7
			c-1.5,0-2.9-0.5-4-1.4c-1.2-0.9-1.7-2.5-1.7-4.6c-0.1-1.7,0.5-3.3,1.6-4.6c1.1-1.1,2.6-1.6,4.1-1.6C141.3,3.9,142.2,4,143.1,4.4z
			 M138.6,7c-0.4,0.5-0.7,1.1-0.8,1.8h5.1c0-0.7-0.3-1.3-0.8-1.8c-0.5-0.4-1.1-0.6-1.8-0.6C139.7,6.3,139.1,6.5,138.6,7z"/>
	</g>
</g>
</svg>
